<svg width="35" height="35" viewBox="0 0 35 35" fill="none" xmlns="http://www.w3.org/2000/svg">
<path d="M17.5 4.375C18.3054 4.375 18.9583 5.02791 18.9583 5.83333V14.5833C18.9583 15.3888 18.3054 16.0417 17.5 16.0417H5.83333C5.02793 16.0417 4.375 15.3888 4.375 14.5833V5.83333C4.375 5.02793 5.02793 4.375 5.83333 4.375H17.5ZM29.1667 4.375C29.9721 4.375 30.625 5.02791 30.625 5.83333V14.5833C30.625 15.3888 29.9721 16.0417 29.1667 16.0417H23.3333C22.5279 16.0417 21.875 15.3888 21.875 14.5833V5.83333C21.875 5.02791 22.5279 4.375 23.3333 4.375H29.1667ZM29.1667 18.9583C29.9721 18.9583 30.625 19.6112 30.625 20.4167V29.1667C30.625 29.9721 29.9721 30.625 29.1667 30.625H17.5C16.6946 30.625 16.0417 29.9721 16.0417 29.1667V20.4167C16.0417 19.6112 16.6946 18.9583 17.5 18.9583H29.1667ZM4.375 20.4167C4.375 19.6112 5.02793 18.9583 5.83333 18.9583H11.6667C12.4721 18.9583 13.125 19.6112 13.125 20.4167V29.1667C13.125 29.9721 12.4721 30.625 11.6667 30.625H5.83333C5.02793 30.625 4.375 29.9721 4.375 29.1667V20.4167Z" fill="#148591"/>
</svg>
