<svg width="35" height="35" viewBox="0 0 35 35" fill="none" xmlns="http://www.w3.org/2000/svg">
<path d="M4.375 7.28451C4.375 5.67763 5.67674 4.375 7.28451 4.375H27.7155C29.3224 4.375 30.625 5.67674 30.625 7.28451V27.7155C30.625 29.3224 29.3233 30.625 27.7155 30.625H7.28451C5.67763 30.625 4.375 29.3233 4.375 27.7155V7.28451ZM7.29167 7.29167V27.7083H27.7083V7.29167H7.29167ZM11.6261 26.5137C10.7238 26.123 9.86882 25.6438 9.07204 25.0868C10.8904 22.2765 14.0525 20.4167 17.649 20.4167C21.148 20.4167 24.2359 22.177 26.0751 24.8605C25.293 25.4386 24.451 25.9404 23.5601 26.3547C22.2355 24.5242 20.0812 23.3333 17.649 23.3333C15.147 23.3333 12.9394 24.5935 11.6261 26.5137ZM17.5 18.9583C14.681 18.9583 12.3958 16.6731 12.3958 13.8542C12.3958 11.0352 14.681 8.75 17.5 8.75C20.319 8.75 22.6042 11.0352 22.6042 13.8542C22.6042 16.6731 20.319 18.9583 17.5 18.9583ZM17.5 16.0417C18.7081 16.0417 19.6875 15.0623 19.6875 13.8542C19.6875 12.646 18.7081 11.6667 17.5 11.6667C16.2919 11.6667 15.3125 12.646 15.3125 13.8542C15.3125 15.0623 16.2919 16.0417 17.5 16.0417Z" fill="#148591"/>
</svg>
