<svg width="40" height="40" viewBox="0 0 40 40" fill="none" xmlns="http://www.w3.org/2000/svg">
<path d="M30.0517 27.6948L37.1895 34.8327L34.8325 37.1897L27.6947 30.0518C25.1282 32.1052 21.8733 33.3335 18.3333 33.3335C10.0533 33.3335 3.33334 26.6135 3.33334 18.3335C3.33334 10.0535 10.0533 3.3335 18.3333 3.3335C26.6133 3.3335 33.3333 10.0535 33.3333 18.3335C33.3333 21.8735 32.105 25.1283 30.0517 27.6948ZM26.7078 26.4582C28.7458 24.3578 30 21.4928 30 18.3335C30 11.8877 24.7792 6.66683 18.3333 6.66683C11.8875 6.66683 6.66668 11.8877 6.66668 18.3335C6.66668 24.7793 11.8875 30.0002 18.3333 30.0002C21.4927 30.0002 24.3577 28.746 26.458 26.708L26.7078 26.4582Z" fill="white"/>
</svg>
