<svg width="35" height="35" viewBox="0 0 35 35" fill="none" xmlns="http://www.w3.org/2000/svg">
<path d="M29.1667 32.0837H5.83333C5.02793 32.0837 4.375 31.4308 4.375 30.6253V4.37533C4.375 3.56992 5.02793 2.91699 5.83333 2.91699H29.1667C29.9721 2.91699 30.625 3.56992 30.625 4.37533V30.6253C30.625 31.4308 29.9721 32.0837 29.1667 32.0837ZM27.7083 29.167V5.83366H7.29167V29.167H27.7083ZM10.2083 8.75033H16.0417V14.5837H10.2083V8.75033ZM10.2083 17.5003H24.7917V20.417H10.2083V17.5003ZM10.2083 23.3337H24.7917V26.2503H10.2083V23.3337ZM18.9583 10.2087H24.7917V13.1253H18.9583V10.2087Z" fill="#148591"/>
</svg>
