<svg width="17" height="17" viewBox="0 0 17 17" fill="none" xmlns="http://www.w3.org/2000/svg">
<path d="M8.49997 12.042C11.0942 12.042 13.3627 13.1577 14.5967 14.822L13.2919 15.4392C12.2877 14.2489 10.5169 13.4587 8.49997 13.4587C6.48305 13.4587 4.71225 14.2489 3.70802 15.4392L2.40381 14.8214C3.63787 13.1574 5.9061 12.042 8.49997 12.042ZM8.49997 1.41699C10.456 1.41699 12.0416 3.00265 12.0416 4.95866V7.08366C12.0416 8.98823 10.5383 10.5416 8.65361 10.6221L8.49997 10.6253C6.54396 10.6253 4.95831 9.03965 4.95831 7.08366V4.95866C4.95831 3.05413 6.4616 1.5007 8.34634 1.42026L8.49997 1.41699ZM8.49997 2.83366C7.36827 2.83366 6.44321 3.71831 6.37858 4.8338L6.37497 4.95866V7.08366C6.37497 8.2573 7.32634 9.20866 8.49997 9.20866C9.63168 9.20866 10.5568 8.32402 10.6214 7.20854L10.625 7.08366V4.95866C10.625 3.78506 9.67354 2.83366 8.49997 2.83366Z" fill="#888888"/>
</svg>
